<svg width="24" height="24" viewBox="0 0 24 24" fill="none" xmlns="http://www.w3.org/2000/svg">
<path d="M10 22C15.421 22 20 17.421 20 12C20 6.579 15.421 2 10 2C4.579 2 0 6.579 0 12C0 17.421 4.579 22 10 22ZM10 4C14.337 4 18 7.663 18 12C18 16.337 14.337 20 10 20C5.663 20 2 16.337 2 12C2 7.663 5.663 4 10 4Z" fill="black"/>
<path d="M10 17C10.901 17 12.581 16.832 13.707 15.708L12.293 14.292C11.85 14.735 10.992 15 10 15C8.374 15 7 13.626 7 12C7 10.374 8.374 9 10 9C10.993 9 11.851 9.265 12.293 9.707L13.707 8.293C12.582 7.168 10.901 7 10 7C7.243 7 5 9.243 5 12C5 14.757 7.243 17 10 17Z" fill="black"/>
</svg>
