<svg width="45" height="47" viewBox="0 0 45 47" fill="none" xmlns="http://www.w3.org/2000/svg">
<path d="M26.2096 23.5L44.8644 0.944325C45.1771 0.569479 44.9142 0 44.4309 0H38.7599C38.4258 0 38.106 0.15138 37.8857 0.410889L22.5 19.0163L7.11426 0.410889C6.90106 0.15138 6.58126 0 6.24015 0H0.569096C0.0858487 0 -0.177095 0.569479 0.135594 0.944325L18.7904 23.5L0.135594 46.0557C0.0655489 46.1392 0.0206122 46.2414 0.00611736 46.3501C-0.00837746 46.4588 0.00817847 46.5694 0.0538213 46.6688C0.0994642 46.7683 0.172277 46.8523 0.263613 46.911C0.354949 46.9697 0.460972 47.0006 0.569096 47H6.24015C6.57416 47 6.89395 46.8486 7.11426 46.5891L22.5 27.9837L37.8857 46.5891C38.0989 46.8486 38.4187 47 38.7599 47H44.4309C44.9142 47 45.1771 46.4305 44.8644 46.0557L26.2096 23.5Z" fill="white"/>
</svg>
