<svg width="30" height="25" viewBox="0 0 30 25" fill="none" xmlns="http://www.w3.org/2000/svg">
<path d="M29.5388 3.37696C28.4603 3.85487 27.3017 4.17779 26.0836 4.32375C27.3404 3.57173 28.2807 2.38814 28.729 0.993831C27.5482 1.69519 26.2559 2.18887 24.9082 2.45341C24.002 1.48578 22.8016 0.844419 21.4935 0.628902C20.1854 0.413384 18.8427 0.63577 17.6739 1.26153C16.5051 1.8873 15.5756 2.88142 15.0298 4.08957C14.4839 5.29772 14.3521 6.6523 14.655 7.943C12.2624 7.82287 9.92183 7.201 7.78515 6.11775C5.64847 5.0345 3.76344 3.51408 2.25239 1.65516C1.73572 2.54641 1.43864 3.57975 1.43864 4.68025C1.43806 5.67095 1.68203 6.64648 2.1489 7.52028C2.61577 8.39408 3.2911 9.13913 4.11497 9.68933C3.1595 9.65893 2.2251 9.40075 1.38956 8.93629V9.01379C1.38946 10.4033 1.8701 11.75 2.74992 12.8255C3.62974 13.901 4.85455 14.6389 6.21652 14.9141C5.33015 15.154 4.40087 15.1893 3.49885 15.0175C3.88312 16.213 4.63164 17.2585 5.63962 18.0076C6.6476 18.7566 7.86458 19.1717 9.12018 19.1947C6.98872 20.8679 4.35637 21.7756 1.6466 21.7716C1.16659 21.7717 0.68699 21.7437 0.210266 21.6876C2.96084 23.4561 6.16271 24.3947 9.43277 24.3911C20.5023 24.3911 26.5538 15.2228 26.5538 7.27133C26.5538 7.013 26.5473 6.75208 26.5357 6.49375C27.7128 5.64251 28.7289 4.5884 29.5363 3.38083L29.5388 3.37696V3.37696Z" fill="white"/>
</svg>
