<svg width="22" height="21" viewBox="0 0 22 21" fill="none" xmlns="http://www.w3.org/2000/svg">
<path d="M1.4165 1.75H1.25C0.8375 1.75 0.5 1.4125 0.5 1C0.5 0.5875 0.8375 0.25 1.25 0.25H2.75C3.1625 0.25 3.5 0.5875 3.5 1C3.5 1.31125 3.308 1.579 3.03725 1.69225L3.245 2.5H19.1C20.42 2.5 21.5 3.574 21.5 4.93975L21.11 11.311C20.9975 13.1987 19.22 14.191 17.6225 14.3177L6.4985 15.1945C6.5195 15.5515 6.27125 15.8905 5.897 15.9783C5.468 16.0765 5.039 15.8335 4.9355 15.4233L4.1375 12.3228C3.3365 12.5733 2.74025 13.4395 2.74025 14.4138V14.5C2.74025 15.706 3.64325 16.75 4.7165 16.75H20.75C21.1602 16.75 21.5 17.0365 21.5 17.467C21.5 17.8975 21.1648 18.25 20.7545 18.25H18.875C19.1734 18.25 19.4595 18.3685 19.6705 18.5795C19.8815 18.7905 20 19.0766 20 19.375C20 19.6734 19.8815 19.9595 19.6705 20.1705C19.4595 20.3815 19.1734 20.5 18.875 20.5C18.5766 20.5 18.2905 20.3815 18.0795 20.1705C17.8685 19.9595 17.75 19.6734 17.75 19.375C17.75 19.0766 17.8685 18.7905 18.0795 18.5795C18.2905 18.3685 18.5766 18.25 18.875 18.25H5.375C5.67337 18.25 5.95952 18.3685 6.17049 18.5795C6.38147 18.7905 6.5 19.0766 6.5 19.375C6.5 19.6734 6.38147 19.9595 6.17049 20.1705C5.95952 20.3815 5.67337 20.5 5.375 20.5C5.07663 20.5 4.79048 20.3815 4.57951 20.1705C4.36853 19.9595 4.25 19.6734 4.25 19.375C4.25 19.0766 4.36853 18.7905 4.57951 18.5795C4.79048 18.3685 5.07663 18.25 5.375 18.25H4.68575C2.79275 18.25 1.25 16.567 1.25 14.5V14.4138C1.25 12.7128 2.318 11.2787 3.76325 10.8677L1.41575 1.75H1.4165ZM6.788 10H8V7H6.04625L6.788 10ZM5.861 6.25H8V4.00525L6.5375 4.00675C5.9075 4.00675 5.45 4.58875 5.6 5.19325L5.861 6.25ZM8.75 4.0045V6.25H12.035V4L8.75 4.0045ZM12.785 3.99925V6.25H16.235V3.9955L12.785 3.99925V3.99925ZM16.985 3.99475V6.25H19.9167L20 4.89475C20 4.39525 19.595 3.99175 19.0925 3.99175L16.985 3.99475V3.99475ZM19.8703 7H16.985V10H19.685L19.8703 7ZM19.6393 10.75H16.985V12.8725L17.495 12.8328C18.5 12.7503 19.55 12.1765 19.61 11.221L19.6393 10.75ZM16.235 12.9325V10.75H12.785V13.204L16.235 12.9318V12.9325ZM12.035 13.2625V10.75H8.75V13.465C8.75 13.4845 8.7485 13.5032 8.7455 13.522L12.035 13.2625V13.2625ZM8 13.45V10.75H6.97325L7.4825 12.8102C7.51575 12.9487 7.57946 13.0779 7.66898 13.1886C7.75851 13.2993 7.87159 13.3886 8 13.45V13.45ZM12.035 7H8.75V10H12.035V7V7ZM16.235 7H12.785V10H16.235V7Z" fill="black"/>
</svg>
